<?xml version="1.0" standalone="no"?>
<!DOCTYPE svg PUBLIC "-//W3C//DTD SVG 20010904//EN"
 "http://www.w3.org/TR/2001/REC-SVG-20010904/DTD/svg10.dtd">
<svg version="1.0" xmlns="http://www.w3.org/2000/svg"
 width="260.000000pt" height="260.000000pt" viewBox="0 0 260.000000 260.000000"
 preserveAspectRatio="xMidYMid meet">
<metadata>
Created by potrace 1.14, written by Peter Selinger 2001-2017
</metadata>
<g transform="translate(0.000000,260.000000) scale(0.100000,-0.100000)"
fill="#000000" stroke="none">
<path d="M98 2394 c-4 -5 -27 -9 -52 -7 l-46 3 0 -1086 c0 -667 4 -1083 9
-1079 5 3 13 1 16 -5 5 -7 11 -8 19 -1 13 11 34 10 54 -2 6 -5 12 -4 12 1 0
11 60 10 77 -1 7 -4 14 -3 18 3 7 11 33 9 52 -3 7 -5 13 -4 13 0 0 11 181 10
199 -1 9 -6 12 -5 7 2 -7 12 53 10 74 -3 8 -5 11 -4 7 2 -8 13 93 11 113 -2 8
-5 11 -4 7 1 -7 11 172 12 189 1 6 -3 14 -3 18 0 12 12 225 10 218 -2 -4 -6 0
-6 9 1 16 12 78 12 98 -1 9 -5 12 -4 8 2 -7 11 112 11 130 0 6 -4 14 -4 17 1
6 11 128 8 146 -3 8 -5 11 -4 7 2 -8 13 93 11 113 -2 8 -5 11 -4 7 1 -7 11
172 12 189 1 6 -3 14 -3 18 0 12 12 225 10 218 -2 -4 -6 0 -6 9 1 16 12 78 12
98 -1 9 -5 12 -4 8 2 -7 11 112 11 130 0 6 -4 14 -4 16 0 7 10 168 10 184 0 6
-4 14 -3 17 2 3 5 22 8 41 6 l35 -3 0 1073 c0 590 -3 1080 -6 1089 -3 9 -11
13 -17 9 -17 -10 -117 -9 -117 2 0 6 -3 6 -8 0 -8 -12 -62 -14 -62 -2 0 5 -5
5 -11 2 -15 -10 -189 -11 -189 -2 0 5 -5 5 -11 1 -16 -10 -149 -11 -149 -1 0
5 -5 5 -12 1 -16 -10 -108 -11 -108 -1 0 5 -5 5 -11 1 -18 -11 -159 -10 -159
1 0 7 -3 7 -8 0 -8 -12 -102 -14 -102 -2 0 5 -5 5 -12 1 -18 -11 -68 -10 -68
1 0 7 -3 7 -8 0 -4 -5 -14 -10 -22 -10 -8 0 -18 5 -22 10 -5 6 -8 6 -8 -1 0
-6 -13 -11 -30 -10 -16 1 -30 5 -30 9 0 5 -5 5 -11 2 -15 -10 -189 -11 -189
-2 0 5 -5 5 -11 1 -16 -10 -149 -11 -149 -1 0 5 -5 5 -12 1 -16 -10 -108 -11
-108 -1 0 5 -5 5 -11 1 -18 -11 -159 -10 -159 1 0 7 -3 7 -8 0 -8 -12 -102
-14 -102 -2 0 5 -5 5 -12 1 -18 -11 -68 -10 -68 1 0 7 -3 7 -8 0 -4 -5 -14
-10 -22 -10 -8 0 -18 5 -22 10 -5 6 -8 6 -8 -1 0 -6 -13 -11 -30 -10 -16 1
-30 5 -30 9 0 5 -5 5 -11 2 -15 -10 -189 -11 -189 -2 0 5 -5 5 -11 1 -18 -10
-149 -10 -152 1 -2 5 -6 5 -9 -1z"/>
</g>
</svg>
